<svg width="24" height="24" viewBox="0 0 24 24" fill="none" xmlns="http://www.w3.org/2000/svg">
<path d="M23.1772 5.78271L22.7318 10.0749C22.6803 10.546 22.1024 10.7485 21.771 10.4172L20.7183 9.36439L14.0887 15.994C13.6727 16.41 12.9402 16.41 12.5242 15.994L8.87259 12.3424L2.70311 18.5155C2.48961 18.729 2.20618 18.8395 1.92273 18.8395C1.63928 18.8395 1.35585 18.729 1.14235 18.5155C0.711666 18.0848 0.711666 17.3855 1.14235 16.9511L8.0922 10.0012C8.50817 9.58526 9.2407 9.58526 9.65297 10.0012L13.3083 13.6528L19.1575 7.80362L17.9243 6.57047C17.5894 6.23548 17.7918 5.65757 18.263 5.60971L22.5551 5.1643C22.9122 5.12381 23.2141 5.42566 23.1772 5.78271Z" fill="#5CBF54"/>
</svg>
